<?xml version="1.0" standalone="no"?>
<!DOCTYPE svg PUBLIC "-//W3C//DTD SVG 20010904//EN"
 "http://www.w3.org/TR/2001/REC-SVG-20010904/DTD/svg10.dtd">
<svg version="1.0" xmlns="http://www.w3.org/2000/svg"
 width="300.000000pt" height="300.000000pt" viewBox="0 0 300.000000 300.000000"
 preserveAspectRatio="xMidYMid meet">

<g transform="translate(0.000000,300.000000) scale(0.100000,-0.100000)"
fill="#000000" stroke="none">
<path d="M745 2313 c-47 -24 -85 -64 -113 -118 -21 -41 -26 -68 -30 -152 l-5
-103 903 0 902 0 -4 103 c-3 81 -9 111 -27 147 -30 58 -66 97 -113 121 -36 18
-68 19 -760 19 -639 -1 -726 -3 -753 -17z m483 -33 c-1 -5 -55 -72 -118 -149
l-115 -140 -168 0 c-132 -1 -167 2 -161 12 5 6 59 74 122 150 l114 137 165 0
c102 0 163 -4 161 -10z m492 4 c0 -4 -54 -71 -120 -150 l-121 -144 -164 0
c-91 0 -165 2 -165 5 0 3 54 71 121 150 l121 145 164 0 c90 0 164 -3 164 -6z
m490 0 c0 -3 -54 -70 -120 -150 l-120 -144 -165 0 c-91 0 -165 2 -165 5 0 3
54 71 120 150 l120 145 165 0 c91 0 165 -3 165 -6z"/>
<path d="M602 1428 c3 -389 3 -393 26 -440 26 -51 87 -113 128 -128 15 -6 312
-10 745 -10 585 0 726 3 752 14 47 19 111 96 130 157 15 44 17 103 17 425 l0
374 -901 0 -900 0 3 -392z m908 68 c182 -79 216 -97 224 -119 20 -55 3 -67
-223 -165 -117 -51 -220 -92 -231 -92 -35 0 -40 32 -40 236 0 170 2 200 17
216 9 10 21 18 27 18 6 0 108 -43 226 -94z"/>
</g>
</svg>
