<svg width="200" height="200" viewBox="0 0 200 200" fill="none" xmlns="http://www.w3.org/2000/svg">
<path d="M200 100C200 155.228 155.228 200 100 200C44.7715 200 0 155.228 0 100C0 44.7715 44.7715 0 100 0C155.228 0 200 44.7715 200 100Z" fill="#3DA7FD"/>
<path d="M70.6364 146V137.818L101.364 104.182C104.97 100.242 107.939 96.8182 110.273 93.9091C112.606 90.9697 114.333 88.2121 115.455 85.6364C116.606 83.0303 117.182 80.303 117.182 77.4545C117.182 74.1818 116.394 71.3485 114.818 68.9545C113.273 66.5606 111.152 64.7121 108.455 63.4091C105.758 62.1061 102.727 61.4545 99.3636 61.4545C95.7879 61.4545 92.6667 62.197 90 63.6818C87.3636 65.1364 85.3182 67.1818 83.8636 69.8182C82.4394 72.4545 81.7273 75.5455 81.7273 79.0909H71C71 73.6364 72.2576 68.8485 74.7727 64.7273C77.2879 60.6061 80.7121 57.3939 85.0455 55.0909C89.4091 52.7879 94.303 51.6364 99.7273 51.6364C105.182 51.6364 110.015 52.7879 114.227 55.0909C118.439 57.3939 121.742 60.5 124.136 64.4091C126.53 68.3182 127.727 72.6667 127.727 77.4545C127.727 80.8788 127.106 84.2273 125.864 87.5C124.652 90.7424 122.53 94.3636 119.5 98.3636C116.5 102.333 112.333 107.182 107 112.909L86.0909 135.273V136H129.364V146H70.6364Z" fill="white"/>
</svg>
