<svg width="201" height="201" viewBox="0 0 201 201" fill="none" xmlns="http://www.w3.org/2000/svg">
<path fill-rule="evenodd" clip-rule="evenodd" d="M197.5 76.8976C210.493 130.576 177.511 184.624 123.832 197.617C70.1537 210.609 16.106 177.627 3.11321 123.949C-9.8796 70.2703 23.1026 16.2226 76.781 3.22984C130.459 -9.76297 184.507 23.2192 197.5 76.8976ZM121.126 186.435C168.629 174.937 197.816 127.107 186.318 79.6041C174.82 32.1011 126.99 2.91332 79.4875 14.4114C31.9845 25.9094 2.79668 73.7393 14.2947 121.242C25.7928 168.745 73.6226 197.933 121.126 186.435Z" fill="#3DA7FD"/>
<path fill-rule="evenodd" clip-rule="evenodd" d="M98.9374 139.907L58.1881 106.976L64.3067 99.4046L105.056 132.335L98.9374 139.907Z" fill="#3DA7FD"/>
<path fill-rule="evenodd" clip-rule="evenodd" d="M151.607 71.6169L98.9374 139.907L91.2291 133.961L143.898 65.6718L151.607 71.6169Z" fill="#3DA7FD"/>
</svg>
