<svg width="200" height="200" viewBox="0 0 200 200" fill="none" xmlns="http://www.w3.org/2000/svg">
<path fill-rule="evenodd" clip-rule="evenodd" d="M100 187C148.049 187 187 148.049 187 100C187 51.9512 148.049 13 100 13C51.9512 13 13 51.9512 13 100C13 148.049 51.9512 187 100 187ZM100 200C155.228 200 200 155.228 200 100C200 44.7715 155.228 0 100 0C44.7715 0 0 44.7715 0 100C0 155.228 44.7715 200 100 200Z" fill="white"/>
<path d="M112.364 53.9091V147H101.091V65.7272H100.545L77.8182 80.8181V69.3636L101.091 53.9091H112.364Z" fill="white"/>
</svg>
