<svg width="200" height="200" viewBox="0 0 200 200" fill="none" xmlns="http://www.w3.org/2000/svg">
<path fill-rule="evenodd" clip-rule="evenodd" d="M100 187C148.049 187 187 148.049 187 100C187 51.9512 148.049 13 100 13C51.9512 13 13 51.9512 13 100C13 148.049 51.9512 187 100 187ZM100 200C155.228 200 200 155.228 200 100C200 44.7715 155.228 0 100 0C44.7715 0 0 44.7715 0 100C0 155.228 44.7715 200 100 200Z" fill="white"/>
<path d="M70.6364 147V138.818L101.364 105.182C104.97 101.242 107.939 97.8182 110.273 94.9091C112.606 91.9697 114.333 89.2121 115.455 86.6364C116.606 84.0303 117.182 81.303 117.182 78.4545C117.182 75.1818 116.394 72.3485 114.818 69.9545C113.273 67.5606 111.152 65.7121 108.455 64.4091C105.758 63.1061 102.727 62.4545 99.3636 62.4545C95.7879 62.4545 92.6667 63.197 90 64.6818C87.3636 66.1364 85.3182 68.1818 83.8636 70.8182C82.4394 73.4545 81.7273 76.5455 81.7273 80.0909H71C71 74.6364 72.2576 69.8485 74.7727 65.7273C77.2879 61.6061 80.7121 58.3939 85.0455 56.0909C89.4091 53.7879 94.303 52.6364 99.7273 52.6364C105.182 52.6364 110.015 53.7879 114.227 56.0909C118.439 58.3939 121.742 61.5 124.136 65.4091C126.53 69.3182 127.727 73.6667 127.727 78.4545C127.727 81.8788 127.106 85.2273 125.864 88.5C124.652 91.7424 122.53 95.3636 119.5 99.3636C116.5 103.333 112.333 108.182 107 113.909L86.0909 136.273V137H129.364V147H70.6364Z" fill="white"/>
</svg>
