<svg width="200" height="200" viewBox="0 0 200 200" fill="none" xmlns="http://www.w3.org/2000/svg">
<path fill-rule="evenodd" clip-rule="evenodd" d="M100 187C148.049 187 187 148.049 187 100C187 51.9512 148.049 13 100 13C51.9512 13 13 51.9512 13 100C13 148.049 51.9512 187 100 187ZM100 200C155.228 200 200 155.228 200 100C200 44.7715 155.228 0 100 0C44.7715 0 0 44.7715 0 100C0 155.228 44.7715 200 100 200Z" fill="white"/>
<path d="M100.091 148.273C94.0909 148.273 88.7424 147.242 84.0455 145.182C79.3788 143.121 75.6667 140.258 72.9091 136.591C70.1818 132.894 68.697 128.606 68.4545 123.727H79.9091C80.1515 126.727 81.1818 129.318 83 131.5C84.8182 133.652 87.197 135.318 90.1364 136.5C93.0758 137.682 96.3333 138.273 99.9091 138.273C103.909 138.273 107.455 137.576 110.545 136.182C113.636 134.788 116.061 132.848 117.818 130.364C119.576 127.879 120.455 125 120.455 121.727C120.455 118.303 119.606 115.288 117.909 112.682C116.212 110.045 113.727 107.985 110.455 106.5C107.182 105.015 103.182 104.273 98.4545 104.273H91V94.2727H98.4545C102.152 94.2727 105.394 93.6061 108.182 92.2727C111 90.9394 113.197 89.0606 114.773 86.6364C116.379 84.2121 117.182 81.3636 117.182 78.0909C117.182 74.9394 116.485 72.197 115.091 69.8636C113.697 67.5303 111.727 65.7121 109.182 64.4091C106.667 63.1061 103.697 62.4545 100.273 62.4545C97.0606 62.4545 94.0303 63.0455 91.1818 64.2273C88.3636 65.3788 86.0606 67.0606 84.2727 69.2727C82.4848 71.4545 81.5152 74.0909 81.3636 77.1818H70.4545C70.6364 72.303 72.1061 68.0303 74.8636 64.3636C77.6212 60.6667 81.2273 57.7879 85.6818 55.7273C90.1667 53.6667 95.0909 52.6364 100.455 52.6364C106.212 52.6364 111.152 53.803 115.273 56.1364C119.394 58.4394 122.561 61.4848 124.773 65.2727C126.985 69.0606 128.091 73.1515 128.091 77.5455C128.091 82.7879 126.712 87.2576 123.955 90.9545C121.227 94.6515 117.515 97.2121 112.818 98.6364V99.3636C118.697 100.333 123.288 102.833 126.591 106.864C129.894 110.864 131.545 115.818 131.545 121.727C131.545 126.788 130.167 131.333 127.409 135.364C124.682 139.364 120.955 142.515 116.227 144.818C111.5 147.121 106.121 148.273 100.091 148.273Z" fill="white"/>
</svg>
