<svg width="200" height="200" viewBox="0 0 200 200" fill="none" xmlns="http://www.w3.org/2000/svg">
<path d="M200 100C200 155.228 155.228 200 100 200C44.7715 200 0 155.228 0 100C0 44.7715 44.7715 0 100 0C155.228 0 200 44.7715 200 100Z" fill="#3DA7FD"/>
<path d="M99.0909 147.273C93.0909 147.273 87.7424 146.242 83.0455 144.182C78.3788 142.121 74.6667 139.258 71.9091 135.591C69.1818 131.894 67.697 127.606 67.4545 122.727H78.9091C79.1515 125.727 80.1818 128.318 82 130.5C83.8182 132.652 86.197 134.318 89.1364 135.5C92.0758 136.682 95.3333 137.273 98.9091 137.273C102.909 137.273 106.455 136.576 109.545 135.182C112.636 133.788 115.061 131.848 116.818 129.364C118.576 126.879 119.455 124 119.455 120.727C119.455 117.303 118.606 114.288 116.909 111.682C115.212 109.045 112.727 106.985 109.455 105.5C106.182 104.015 102.182 103.273 97.4545 103.273H90V93.2727H97.4545C101.152 93.2727 104.394 92.6061 107.182 91.2727C110 89.9394 112.197 88.0606 113.773 85.6364C115.379 83.2121 116.182 80.3636 116.182 77.0909C116.182 73.9394 115.485 71.197 114.091 68.8636C112.697 66.5303 110.727 64.7121 108.182 63.4091C105.667 62.1061 102.697 61.4545 99.2727 61.4545C96.0606 61.4545 93.0303 62.0455 90.1818 63.2273C87.3636 64.3788 85.0606 66.0606 83.2727 68.2727C81.4848 70.4545 80.5152 73.0909 80.3636 76.1818H69.4545C69.6364 71.303 71.1061 67.0303 73.8636 63.3636C76.6212 59.6667 80.2273 56.7879 84.6818 54.7273C89.1667 52.6667 94.0909 51.6364 99.4545 51.6364C105.212 51.6364 110.152 52.803 114.273 55.1364C118.394 57.4394 121.561 60.4848 123.773 64.2727C125.985 68.0606 127.091 72.1515 127.091 76.5455C127.091 81.7879 125.712 86.2576 122.955 89.9545C120.227 93.6515 116.515 96.2121 111.818 97.6364V98.3636C117.697 99.3333 122.288 101.833 125.591 105.864C128.894 109.864 130.545 114.818 130.545 120.727C130.545 125.788 129.167 130.333 126.409 134.364C123.682 138.364 119.955 141.515 115.227 143.818C110.5 146.121 105.121 147.273 99.0909 147.273Z" fill="white"/>
</svg>
